<?xml version="1.0" encoding="UTF-8"?>
<svg width="960px" height="370px" viewBox="0 0 960 370" version="1.1" xmlns="http://www.w3.org/2000/svg" xmlns:xlink="http://www.w3.org/1999/xlink">
    <title>Illustration/Charactersvg</title>
    <defs>
        <linearGradient x1="49.9969002%" y1="63.4878331%" x2="49.9969002%" y2="-18.2734647%" id="linearGradient-1">
            <stop stop-color="#000000" stop-opacity="0" offset="0%"></stop>
            <stop stop-color="#000000" stop-opacity="0.47" offset="86%"></stop>
            <stop stop-color="#000000" offset="100%"></stop>
        </linearGradient>
        <linearGradient x1="-10.1897008%" y1="44.3517046%" x2="87.5471667%" y2="55.4529351%" id="linearGradient-2">
            <stop stop-color="#000000" stop-opacity="0" offset="0%"></stop>
            <stop stop-color="#000000" stop-opacity="0.14" offset="86%"></stop>
            <stop stop-color="#000000" stop-opacity="0.3" offset="100%"></stop>
        </linearGradient>
        <linearGradient x1="24.9685656%" y1="40.4985514%" x2="65.2784765%" y2="55.5742318%" id="linearGradient-3">
            <stop stop-color="#000000" stop-opacity="0" offset="0%"></stop>
            <stop stop-color="#000000" stop-opacity="0.14" offset="86%"></stop>
            <stop stop-color="#000000" stop-opacity="0.3" offset="100%"></stop>
        </linearGradient>
        <linearGradient x1="-0.543933054%" y1="49.9632353%" x2="99.3723849%" y2="49.9632353%" id="linearGradient-4">
            <stop stop-color="#000000" stop-opacity="0" offset="0%"></stop>
            <stop stop-color="#000000" stop-opacity="0.14" offset="86%"></stop>
            <stop stop-color="#000000" stop-opacity="0.3" offset="100%"></stop>
        </linearGradient>
    </defs>
    <g id="Features-Page" stroke="none" stroke-width="1" fill="none" fill-rule="evenodd">
        <g id="FULL-&gt;-Features" transform="translate(-579.000000, -344.000000)">
            <g id="Illustration/Character" transform="translate(579.000000, 344.000000)">
                <g id="dont_see_feature_character">
                    <polygon id="Path" fill="url(#linearGradient-1)" fill-rule="nonzero" opacity="0.2" points="242 374 398.846249 286.711472 547.939244 284 749 365.552723"></polygon>
                    <ellipse id="Oval" fill="#F2FAF3" fill-rule="nonzero" opacity="0.5" cx="480" cy="290" rx="480" ry="80"></ellipse>
                    <ellipse id="Oval" fill="#FFFFFF" fill-rule="nonzero" opacity="0.5" cx="479" cy="290" rx="375" ry="62"></ellipse>
                    <path d="M479,312.659461 C549.140163,312.659461 606,306.911688 606,292 C606,277.088312 549.140163,258 479,258 C408.859837,258 352,277.088312 352,292 C352,306.911688 408.859837,312.659461 479,312.659461 Z" id="Oval" fill="#194866" fill-rule="nonzero" opacity="0.100000001"></path>
                    <path d="M516.231523,46.1336325 C528.264773,49.1717224 550.552443,59.9621797 555.261106,78.5050044 C562.271782,106.371622 546.471602,158.438198 536.531092,199.714316 C533.078072,213.857148 448.008231,217 448.008231,217 L423,76.3050082 C423,76.3050082 454.181811,45.8193473 460.564665,43.7241129 C473.748921,39.533644 492.060388,40.0574526 516.231523,46.1336325 Z" id="Path" fill="#4A90E2" fill-rule="nonzero"></path>
                    <path d="M516.231523,46.1336325 C528.264773,49.1717224 550.552443,59.9621797 555.261106,78.5050044 C562.271782,106.371622 546.471602,158.438198 536.531092,199.714316 C533.078072,213.857148 448.008231,217 448.008231,217 L423,76.3050082 C423,76.3050082 454.181811,45.8193473 460.564665,43.7241129 C473.748921,39.533644 492.060388,40.0574526 516.231523,46.1336325 Z" id="Path" fill="url(#linearGradient-2)" fill-rule="nonzero"></path>
                    <path d="M422.987742,76.2899674 C418.486209,87.505438 407.180035,154.483809 419.742451,170.206432 C421.208066,171.988329 413.147183,174.818401 414.612798,183.203799 C414.822171,184.566427 417.334655,191.274745 417.334655,191.274745 L427.698648,194 L459,176.181028 L453.032853,168.843804 L450.206309,168.948622 C450.206309,168.948622 447.484452,166.433002 448.321947,163.393295 C449.159441,160.353588 441.098558,155.322349 429.164263,103.437695 C425.500225,88.0295254 423.929923,73.7743478 422.987742,76.2899674 Z" id="Path" fill="#285FA1" fill-rule="nonzero"></path>
                    <path d="M434.780488,166.586207 L444.081301,164.62069 L447.886179,164 C447.99187,165.655172 448.731707,167.206897 450,168.344828 L442.707317,168.551724 L434.252033,170.310345 L424,176 L434.780488,166.586207 Z" id="Path" fill="#DBDAC6" fill-rule="nonzero"></path>
                    <path d="M448.117784,175 C443.407067,175.106479 438.69635,176.384228 434.520941,178.726767 C429.810224,181.601701 425.420692,187.990445 429.810224,191.397774 C433.343262,193.953272 436.983361,196.189332 440.944646,197.999476 C440.837585,197.999476 457.539219,198.425392 448.117784,175 Z" id="Path" fill="#C4D1E1" fill-rule="nonzero"></path>
                    <path d="M429.588785,191.642454 L434.037383,190.683779 C434.037383,190.683779 449.183801,189.299026 451.4081,190.47074 C453.632399,191.642454 460.517134,196.435831 460.517134,196.435831 L462,197.714065 C462,197.714065 458.610592,199.844454 454.056075,196.64887 C449.501558,193.453285 449.077882,195.903233 449.077882,195.903233 L449.819315,199.950974 L449.713396,205.170429 L450.454829,207.407338 C450.454829,207.407338 451.090343,208.579052 450.560748,209.00513 C449.819315,209.750766 448.654206,209.963805 447.700935,209.644247 L443.040498,201.548766 L441.76947,210.389883 C441.345794,211.13552 440.498442,211.668117 439.65109,211.881156 C438.274143,212.200714 438.274143,211.774636 438.274143,211.774636 L437.214953,209.537727 C437.109034,210.176844 436.791277,210.709442 436.261682,211.029 C435.41433,211.561597 434.461059,211.881156 433.507788,211.774636 L433.931464,202.507441 L432.024922,207.194299 C431.495327,207.939935 430.753894,208.472532 429.906542,208.685571 C428.423676,209.00513 428,209.218169 428,209.218169 L429.588785,191.642454 Z" id="Path" fill="#E4EEF3" fill-rule="nonzero"></path>
                    <path d="M508.061877,156.203869 C508.061877,156.203869 497.146018,183.642798 470.905972,190.918272 C466.392684,192.165496 463.558759,197.050457 465.762923,198.609487 C468.596848,200.584259 472.375414,201 478.987906,201 C492.73769,201 507.537076,191.437949 520.552139,179.069643 C539.654893,160.777024 542.383858,151.422843 540.494574,142.172598 C538.605291,132.922353 508.061877,156.203869 508.061877,156.203869 Z" id="Path" fill="#C98F79" fill-rule="nonzero"></path>
                    <path d="M551.303931,69.4192419 C556.855272,78.5086857 560.102283,93.1353768 559.997541,114.03065 C559.997541,130.224486 521.766604,181 521.766604,181 L496,166.164356 L505.426806,151.642141 L508.254848,151.95557 C508.254848,151.95557 518.205366,96.060715 522.709285,69.3147655 C525.327842,53.8522634 545.857332,60.3297981 551.303931,69.4192419 Z" id="Path" fill="#2C69B1" fill-rule="nonzero"></path>
                    <path d="M551.303931,69.4192419 C556.855272,78.5086857 560.102283,93.1353768 559.997541,114.03065 C559.997541,130.224486 521.766604,181 521.766604,181 L496,166.164356 L505.426806,151.642141 L508.254848,151.95557 C508.254848,151.95557 518.205366,96.060715 522.709285,69.3147655 C525.327842,53.8522634 545.857332,60.3297981 551.303931,69.4192419 Z" id="Path" fill="url(#linearGradient-3)" fill-rule="nonzero"></path>
                    <path d="M524.062762,150.705882 L515.066946,147.926471 L511.405858,147 C511.196653,148.647059 510.25523,150.088235 509,151.220588 L516.112971,152.044118 L524.376569,154.514706 L534,161 L524.062762,150.705882 Z" id="Path" fill="url(#linearGradient-4)" fill-rule="nonzero"></path>
                    <path d="M472.263296,191.223176 L456.707802,187 C456.707802,187 452.278092,192.974249 453.102224,194.416309 C453.926356,195.858369 453.102224,204.613734 453.102224,204.613734 L460.62243,211 L466.803421,208.939914 C466.803421,208.939914 467.215487,206.261803 465.155156,205.95279 C463.094826,205.643777 466.597388,204.201717 467.627553,203.583691 C468.657718,202.965665 477.723172,198.330472 472.263296,191.223176 Z" id="Path" fill="#C98F79" fill-rule="nonzero"></path>
                    <path d="M498.741195,49.2956838 C499.580048,51.8058358 498.321768,54.5251671 495.805209,55.3618844 L477.560152,61.741854 C475.043592,62.5785713 472.31732,61.3234953 471.478466,58.8133433 L460.258805,26.7043162 C459.419952,24.1941642 460.678232,21.4748329 463.194791,20.6381156 L481.439848,14.258146 C483.956408,13.4214287 486.68268,14.6765047 487.521534,17.1866567 L498.741195,49.2956838 Z" id="Path" fill="#C98F79" fill-rule="nonzero"></path>
                    <path d="M457.373882,64.4102273 C458.322651,67.7564301 461.801471,69.6386691 465.069454,68.8021184 L492.372921,61.377731 C495.746322,60.4366115 497.64386,56.9858399 496.80051,53.744206 L485.626118,13.5897727 C484.677349,10.2435699 481.198529,8.36133089 477.930546,9.19788158 L450.627079,16.622269 C447.253678,17.5633885 445.35614,21.0141601 446.19949,24.255794 L457.373882,64.4102273 Z" id="Path" fill="#C98F79" fill-rule="nonzero"></path>
                    <path d="M449.350625,33 C449.350625,33 444.711758,30.0445661 443.371641,27.8279906 C442.753125,26.6669273 442.650039,21.8115715 445.124102,19.1727912 C447.598164,16.5340109 451,19.1727912 451,19.1727912 C451,19.1727912 446.979649,23.1837373 446.979649,24.3448006 C446.979649,25.505864 449.350625,33 449.350625,33 Z" id="Path" fill="#163F59" fill-rule="nonzero"></path>
                    <path d="M494,30.5702693 C494,30.5702693 493.894211,14.0852777 491.778438,9.80752667 C489.662664,5.52977567 488.3932,2.50404936 482.680611,3.54740326 C474.111728,5.11243411 474.534883,6.88613574 469.774393,5.42544028 C465.013902,3.96474482 456.021864,0 453.377147,0 C448.934023,0.10433539 442.692491,3.33873248 444.702476,11.1638867 C446.077728,16.9023332 442.798279,19.3020472 443.009857,19.5107179 C443.5388,20.1367303 445.231419,20.3454011 448.299291,20.9714134 C456.973962,22.6407796 461.734453,22.2234381 467.129676,19.0933764 C472.524898,15.9633147 482.469034,9.80752667 485.007962,13.6679361 C487.546891,17.5283455 490.614762,30.6746047 491.355283,31.6136232 C492.095804,32.5526417 493.259479,31.6136232 494,30.5702693 Z" id="Path" fill="#194866" fill-rule="nonzero"></path>
                    <path d="M488.02742,45.4903845 C488.343109,46.6147031 489.500636,47.2279678 490.552933,46.9213354 L496.445796,45.3881737 C497.603323,45.0815414 498.234701,43.9572228 497.919012,42.935115 L494.97258,32.5096155 C494.656891,31.3852969 493.499364,30.7720322 492.447067,31.0786646 L486.554204,32.6118263 C485.396677,32.9184586 484.765299,34.0427772 485.080988,35.064885 L488.02742,45.4903845 Z" id="Path" fill="#C98F79" fill-rule="nonzero"></path>
                    <path d="M454.02742,54.499967 C454.343109,55.6171488 455.500636,56.2265207 456.552933,55.9218348 L462.445796,54.296843 C463.603323,53.9921571 464.234701,52.8749752 463.919012,51.8593554 L460.97258,41.500033 C460.656891,40.3828512 459.499364,39.7734793 458.447067,40.0781652 L452.554204,41.601595 C451.396677,41.9062809 450.765299,43.0234628 451.080988,44.0390826 L454.02742,54.499967 Z" id="Path" fill="#C98F79" fill-rule="nonzero"></path>
                    <path d="M491.645852,35 C491.645852,35 496.031994,50.7211546 497.494041,56.0309486 C498.747224,60.8201745 499.791544,71.6479896 472.952535,79.0400556 C457.07888,83.4128271 454.468081,71.6479896 453.31933,67.7957861 C452.483874,64.8806051 453.423762,55.1980397 454.572513,53.1157676 C454.572513,53.011654 456.347856,59.5708112 456.347856,59.5708112 C457.496607,55.0939261 460.942861,51.5540635 465.433435,50.3047002 C477.651972,46.9730648 482.35141,53.3239948 487.677439,51.7622907 C491.854716,50.4088138 493.1079,42.8085205 491.645852,35 Z" id="Path" fill="#194866" fill-rule="nonzero"></path>
                    <path d="M471.617673,31.5381544 C473.767175,29.2374061 477.144965,28.4371458 480.113326,29.4374712 C482.058114,30.0376664 482.774615,27.1367229 480.932184,26.5365277 C476.837893,25.2361047 472.334174,26.3364626 469.365813,29.4374712 C468.137526,30.8379267 470.287028,32.9386099 471.617673,31.5381544 Z" id="Path" fill="#194866" fill-rule="nonzero"></path>
                    <path d="M463.227149,31.0665178 C459.076737,28.9675273 455.445126,30.1827323 451.709756,32.8340888 C450.049591,34.0492938 451.605996,36.9215966 453.26616,35.7063916 C455.860168,33.8283474 458.454175,32.392196 461.566984,33.9388206 C463.434669,34.8226061 464.991074,31.9503033 463.227149,31.0665178 L463.227149,31.0665178 Z" id="Path" fill="#194866" fill-rule="nonzero"></path>
                    <path d="M477.418078,53.4531688 C475.797747,55.2257066 473.671062,56.3335426 471.443107,56.6658935 C469.518964,56.8874607 469.518964,60.2109689 471.443107,59.9894017 C474.481228,59.6570509 477.316807,58.216864 479.544762,55.7796246 C480.962552,54.3394377 478.734597,52.0129819 477.418078,53.4531688 L477.418078,53.4531688 Z" id="Path" fill="#C98F79" fill-rule="nonzero"></path>
                    <ellipse id="Oval" fill="#121063" fill-rule="nonzero" transform="translate(475.281856, 34.713955) rotate(-16.959925) translate(-475.281856, -34.713955) " cx="475.281856" cy="34.7139552" rx="1.88544867" ry="2.40830297"></ellipse>
                    <ellipse id="Oval" fill="#121063" fill-rule="nonzero" transform="translate(459.259661, 38.878642) rotate(-16.959925) translate(-459.259661, -38.878642) " cx="459.259661" cy="38.8786421" rx="1.88544867" ry="2.40830297"></ellipse>
                    <path d="M469.608822,44.8914212 C470.156244,45.0933676 470.156244,44.9923944 469.827791,44.5885016 L469.608822,44.1846088 C469.280368,43.6797427 469.061399,43.0739035 468.951915,42.5690375 C468.623462,41.5593055 468.404493,40.5495734 468.295008,39.4388682 C468.076039,37.5203773 464.791505,37.5203773 465.010474,39.4388682 C465.229443,41.6602787 465.776865,43.780716 466.762226,45.6992068 C467.638101,47.2138049 469.389853,48.8293762 471.251089,47.5167245 C473.00284,46.4060193 471.360573,43.780716 469.608822,44.8914212 L469.608822,44.8914212 Z" id="Path" fill="#E8B3AC" fill-rule="nonzero"></path>
                    <path d="M334.104034,200.24 C335.152808,212.925484 410.244976,278.135166 435.415536,282.223876 L495.090737,285.369037 C559.904927,294.490005 618.845987,201.707742 618.845987,201.707742 C622.831326,176.54645 548.368421,198.667419 523.407616,203.804516 C483.868863,211.877097 461.529991,206.949678 461.529991,206.949678 C437.513082,203.070645 415.279088,177.909353 385.913436,169.417417 C353.611218,159.877094 332.32112,180.320644 334.104034,200.24 Z" id="Path" fill="#282723" fill-rule="nonzero"></path>
                    <path d="M498.894904,207.554468 C498.894904,207.554468 498.894904,207.453478 498.894904,207.554468 L499,204.423768 L367.105096,202 L367,205.02971 C367,205.02971 367,205.1307 367,205.1307 L367.315287,205.736642 C368.996815,208.463381 372.044586,208.968332 375.512739,208.968332 L490.27707,210.988139 C493.745223,211.089129 496.792994,210.584178 498.579618,207.958429 L498.894904,207.554468 Z" id="Path" stroke="#130160" fill="#FFFFFF" fill-rule="nonzero"></path>
                    <polygon id="Path" fill="#D8E5ED" fill-rule="nonzero" points="407 209.134615 467 210 467 205.769231 407.105448 205"></polygon>
                    <path d="M467,204 L451.221815,138.842247 C450.699358,137.055664 449.23648,135.794546 447.355637,135.689453 L355.4033,134.007963 C354.149404,133.902869 353,134.848708 353,136.214919 C353,136.530198 353,136.845478 353.104491,137.160757 L368.987168,202.213416 L467,204 Z" id="Path" fill="#FFFFFF" fill-rule="nonzero"></path>
                    <path d="M414.813742,169.10521 C415.629705,172.471919 413.691792,175.10216 410.427937,174.996951 C406.960091,174.786531 404.104218,172.2615 403.186258,168.89479 C402.370295,165.528081 404.308208,162.89784 407.572063,163.003049 C410.937914,163.318678 413.895782,165.7385 414.813742,169.10521 Z" id="Path" fill="#B6C2C9" fill-rule="nonzero"></path>
                    <path d="M507.177564,295.904631 C500.039266,297.176577 488.072121,285.305086 488.072121,285.305086 L476,273.963573 L479.884074,264 L515.995461,280.429295 C516.100436,280.429295 514.420836,294.632686 507.177564,295.904631 Z" id="Path" fill="#C98F79" fill-rule="nonzero"></path>
                    <path d="M488,285.241968 C488,285.241968 488,286.078357 489.369629,289.946661 C490.739259,293.814964 492.424956,295.069548 494.21601,295.592292 C501.169512,297.578718 512.653327,299.356047 529.404946,302.597057 C546.156565,305.838068 551.108302,303.433447 556.060039,295.696841 C561.011775,287.960235 555.849326,282.105506 547.736907,281.478213 C535.937024,280.537275 529.404946,281.896408 523.294292,280.95547 C516.867571,280.014531 516.446146,278.550849 512.653327,276.250777 C509.071219,274.055253 505.910536,286.914747 509.176575,289.946661 C512.126546,292.45583 490.528546,290.155758 488,285.241968 Z" id="Path" fill="#C9C8B6" fill-rule="nonzero"></path>
                    <path d="M492.251119,292.978111 C499.132276,294.938848 510.49661,296.693191 527.073941,299.892288 C543.651273,303.091385 548.55149,300.717862 553.451708,293.081308 C555.641167,289.572621 555.745427,286.47672 554.494307,284 C558.143405,286.47672 559.394525,290.810981 556.058207,295.867618 C551.262249,303.400975 546.257772,305.774499 529.68044,302.678599 C513.103109,299.582698 501.738774,297.828355 494.857618,295.764421 C493.189459,295.248438 491.72982,294.010078 491,292.358931 C491.41704,292.668521 491.83408,292.874914 492.251119,292.978111 Z" id="Path" fill="#FFFFFF" fill-rule="nonzero"></path>
                    <path d="M493.4,292.65 C493.4,292.55 493.4,292.45 493.4,292.35 C493.5,292.45 493.5,292.55 493.6,292.65 L493.4,292.65 Z" id="Path" fill="#FFFFFF" fill-rule="nonzero"></path>
                    <path d="M530.787527,294.972596 C531.279731,295.187137 531.771935,294.11443 531.870376,292.719911 C532.165699,289.716331 532.756344,286.820022 533.642312,283.923713 C534.134516,282.421923 534.134516,281.241946 533.543871,281.027404 C532.953226,280.812863 532.067258,281.88557 531.673495,283.280089 C530.787527,286.069127 530.196882,288.965436 530,291.969016 C530,293.470806 530.295323,294.758054 530.787527,294.972596 Z" id="Path" fill="#FFFFFF" fill-rule="nonzero"></path>
                    <path d="M525.788696,293.991931 C526.272306,294.098423 526.755916,293.140002 526.94936,291.755615 C527.239526,288.986843 527.819858,286.218071 528.690355,283.55579 C529.173965,282.171404 529.077243,281 528.496911,281 C527.916579,281 527.046082,281.958421 526.659194,283.236316 C525.788696,285.898597 525.305086,288.560878 525.01492,291.32965 C524.918198,292.714037 525.305086,293.88544 525.788696,293.991931 Z" id="Path" fill="#FFFFFF" fill-rule="nonzero"></path>
                    <path d="M519.923029,292.992833 C520.57303,293.096776 521.114697,292.057349 521.331364,290.706094 C521.764698,287.899642 522.523032,285.09319 523.606367,282.494624 C524.148034,281.143369 524.148034,280 523.498033,280 C522.848032,280 521.764698,281.039427 521.223031,282.390681 C520.248029,284.989248 519.489695,287.7957 519.056361,290.602152 C518.839695,291.745521 519.273028,292.88889 519.923029,292.992833 Z" id="Path" fill="#FFFFFF" fill-rule="nonzero"></path>
                    <path d="M495,270.289523 C495,270.289523 368.551209,168.855009 359.624176,166.334896 C329.482313,158.039527 328.222026,190.380967 339.669633,208.861789 C353.217717,230.597757 483.867465,281 483.867465,281 L495,270.289523 Z" id="Path" fill="#323B31" fill-rule="nonzero"></path>
                    <polygon id="Path" fill="#C98F79" fill-rule="nonzero" points="441.084337 285 484 255.388889 479.614458 244 432 264.5"></polygon>
                    <path d="M452,256.607596 C452,256.607596 577.216794,165.315633 585.264952,164.265093 C612.649594,160.79831 620.697751,192.314522 617.248541,201.559278 C612.858637,213.535439 461.511459,271 461.511459,271 L452,256.607596 Z" id="Path" fill="#3C463B" fill-rule="nonzero"></path>
                    <path d="M389.571902,273.050383 C387.365727,274.49583 386,279.554895 386,279.554895 C386,279.554895 411.633647,294.732089 421.298792,296.693768 C423.820135,297.209999 428.547651,297.003506 433.065056,296.590521 C433.800448,296.487275 435.901567,294.938582 436.636958,294.938582 C438.002685,294.835336 438.107741,296.07429 439.263356,295.971044 C441.049307,295.764552 442.940314,295.454813 444.726265,295.041828 C452.815571,283.891236 451.975124,277.593217 451.975124,277.593217 C451.975124,277.593217 438.633021,278.832171 441.364475,276.457508 C447.142551,271.295197 434.956063,262.829007 431.489218,265.513409 C417.201611,276.044523 396.085369,269.02378 389.571902,273.050383 Z" id="Path" fill="#DBDAC6" fill-rule="nonzero"></path>
                    <path d="M387.675676,275 C395.530405,279.924606 411.972973,290.088154 415.429054,290.926385 C429.672297,294.593645 440.668919,291.3455 448,289.56426 C446.952703,291.450279 445.800676,293.23152 444.543919,295.01276 C442.763514,295.431875 440.983108,295.746212 439.097973,295.95577 C437.945946,296.060549 437.841216,294.803202 436.47973,294.907981 C435.746622,295.01276 433.756757,296.584443 432.918919,296.584443 C428.415541,297.003558 423.702703,297.213116 421.189189,296.689222 C411.554054,294.698424 386,279.295933 386,279.295933 C386.418919,277.829029 386.942568,276.362125 387.675676,275 Z" id="Path" fill="#FFFFFF" fill-rule="nonzero"></path>
                    <path d="M409.060189,270.307503 C408.747239,270.748724 409.686089,271.52086 411.146522,272.18269 C414.171705,273.506352 417.092572,275.050623 419.909121,276.92581 C421.265238,277.918556 422.621355,278.249471 422.934305,277.808251 C423.247255,277.36703 422.412721,276.043369 421.056605,275.160928 C418.344372,273.396046 415.423505,271.74147 412.398322,270.528114 C410.833572,269.866283 409.373139,269.866283 409.060189,270.307503 Z" id="Path" fill="#FFFFFF" fill-rule="nonzero"></path>
                    <path d="M416.059189,269.265417 C415.752613,269.70778 416.672339,270.703096 418.000832,271.366639 C420.8622,272.914908 423.519186,274.684358 426.073979,276.78558 C427.30028,277.780895 428.628773,278.333848 428.935348,277.780895 C429.241923,277.227942 428.424389,275.900855 427.198088,274.905539 C424.643295,272.914908 421.98631,271.034867 419.124941,269.597189 C417.796448,268.933646 416.467956,268.823055 416.059189,269.265417 Z" id="Path" fill="#FFFFFF" fill-rule="nonzero"></path>
                    <path d="M421.068042,268.250451 C420.743914,268.688822 421.608256,269.784751 423.012813,270.661494 C425.929969,272.41498 428.631039,274.497245 431.116024,276.689102 C432.412537,277.785031 433.601008,278.332995 433.925137,277.785031 C434.249265,277.237067 433.492966,275.812359 432.196452,274.71643 C429.711467,272.524573 427.010397,270.551901 424.093241,268.798415 C422.796727,267.921672 421.39217,267.812079 421.068042,268.250451 Z" id="Path" fill="#FFFFFF" fill-rule="nonzero"></path>
                </g>
            </g>
        </g>
    </g>
</svg>