<?xml version="1.0" encoding="UTF-8"?>
<svg width="580px" height="400px" viewBox="0 0 580 400" version="1.1" xmlns="http://www.w3.org/2000/svg" xmlns:xlink="http://www.w3.org/1999/xlink">
    <title>Box@1x</title>
    <defs>
        <filter id="filter-1">
            <feColorMatrix in="SourceGraphic" type="matrix" values="0 0 0 0 0.952941 0 0 0 0 0.960784 0 0 0 0 0.968627 0 0 0 0.900000 0"></feColorMatrix>
        </filter>
    </defs>
    <g id="Page-1" stroke="none" stroke-width="1" fill="none" fill-rule="evenodd">
        <g id="Illustration/Device-Sync" transform="translate(-22.000000, 17.000000)">
            <g id="Stacked-Group" stroke-width="1" fill-rule="evenodd" transform="translate(109.000000, 138.289773)"></g>
            <g id="Stacked-Group-2" stroke-width="1" fill-rule="evenodd" transform="translate(258.000000, 138.289773)"></g>
            <g id="Stacked-Group-3" stroke-width="1" fill-rule="evenodd" transform="translate(424.000000, 138.289773)"></g>
            <rect id="Rectangle" x="0" y="0" width="625" height="366"></rect>
            <g id="Group-11" stroke-width="1" fill-rule="evenodd" transform="translate(74.000000, 38.471591)">
                <g id="Group-3" transform="translate(-0.000000, -0.000000)">
                    <rect id="Rectangle" fill="#D2D2D2" fill-rule="nonzero" x="218.14" y="237.140966" width="84.37" height="50.9488636"></rect>
                    <path d="M78.31,0.1715625 L442.31,0.1715625 C445.071424,0.1715625 447.31,2.41013875 447.31,5.1715625 L447.31,201.887472 L447.31,201.887472 L78.31,201.887472 C75.5485763,201.887472 73.31,199.648895 73.31,196.887472 L73.31,5.1715625 C73.31,2.41013875 75.5485763,0.1715625 78.31,0.1715625 Z" id="Rectangle" fill="#343B43" fill-rule="nonzero"></path>
                    <rect id="Rectangle" fill="#5DC069" fill-rule="nonzero" x="79" y="5.19886364" width="363" height="190.496761" rx="5"></rect>
                    <path d="M447.305,226.526902 C447.305,229.339148 445.921625,232.037317 443.449597,234.02784 C440.977568,236.018363 437.622835,237.138188 434.123401,237.140966 L86.4996373,237.140966 C82.9979435,237.140966 79.6398601,236.022369 77.1650116,234.031544 C74.6901632,232.040719 73.305,229.340963 73.305,226.526902 L73.305,201.788693 L447.305,201.788693 L447.305,226.526902 Z" id="Path" fill="#E6E5E5" fill-rule="nonzero"></path>
                    <path d="M466.12,124.772727 L402.89,124.772727 C396.878567,124.789974 392.010987,129.881092 392,136.162838 L392,276.626935 C392.010987,282.908681 396.878567,287.999798 402.89,288.017045 L466.12,288.017045 C472.129807,287.999779 476.994514,282.906989 477,276.626935 L477,136.162838 C476.994514,129.882783 472.129807,124.789993 466.12,124.772727 Z" id="Path" fill="#343B43" fill-rule="nonzero"></path>
                    <path d="M464.99,130.908426 C468.303708,130.908426 470.99,133.701559 470.99,137.147063 L470.99,272.317517 C470.99,273.466018 470.094569,274.397063 468.99,274.397063 L400.32,274.397063 C399.215431,274.397063 398.32,273.466018 398.32,272.317517 L398.32,137.147063 C398.32,133.701559 401.006292,130.908426 404.32,130.908426 L413.564,130.908386 L418.39,135.046722 L451.06,135.046722 L455.884,130.908386 L464.99,130.908426 Z" id="Combined-Shape" fill="#5DC069" fill-rule="nonzero"></path>
                    <path d="M427.86,283.847557 C426.6307,283.836144 425.639977,282.79671 425.639977,281.518466 L425.639977,280.832216 C425.63734,280.218218 425.870057,279.62842 426.286677,279.193279 C426.703296,278.758138 427.269483,278.513523 427.86,278.513523 L441.14,278.513523 C442.371595,278.513523 443.37,279.551637 443.37,280.832216 L443.37,281.518466 C443.364577,282.798397 442.370935,283.836192 441.14,283.847557 L427.86,283.847557 Z" id="Path" fill="#495057" fill-rule="nonzero"></path>
                    <path d="M436.52,129.784432 C436.52,130.932933 435.624569,131.863977 434.52,131.863977 C433.415431,131.863977 432.52,130.932933 432.52,129.784432 C432.52,128.635931 433.415431,127.704886 434.52,127.704886 C435.050433,127.704886 435.559141,127.923981 435.934214,128.313971 C436.309286,128.703962 436.52,129.232902 436.52,129.784432 L436.52,129.784432 Z" id="Path" fill="#495057" fill-rule="nonzero"></path>
                    <path d="M-8.52651283e-14,62.5007386 C-8.52651283e-14,56.6950649 4.52640118,51.9886364 10.11,51.9886364 L145.7,51.9886364 C150.118278,51.9886364 153.7,55.7128132 153.7,60.3068182 L153.7,279.584489 C153.7,284.178494 150.118278,287.90267 145.7,287.90267 L10,287.90267 C4.4771525,287.90267 -8.52651283e-14,283.247449 -8.52651283e-14,277.504943 L-8.52651283e-14,62.5007386 Z" id="Path" fill="#343B43" fill-rule="nonzero"></path>
                    <rect id="Rectangle" fill="#5DC069" fill-rule="nonzero" x="5" y="56.1477273" width="144.36" height="226.192159" rx="6"></rect>
                    <g id="logo/text/light" transform="translate(201.000000, 83.181818)" fill="#F3F5F7" fill-opacity="0.9" fill-rule="nonzero">
                        <g filter="url(#filter-1)" id="logo/square/default">
                            <g>
                                <g stroke-width="1" fill="none" fill-rule="evenodd" id="background">
                                    <rect x="0" y="0" width="32.0467836" height="33.2727273"></rect>
                                </g>
                                <path d="M28.1729146,9.23793091 C28.0731277,9.63508445 26.6517287,15.2948152 26.615911,15.4337083 C26.5196429,15.8004017 26.1308005,16.0663422 25.6901794,16.0663422 L19.7680608,16.0663422 L23.693183,18.2072744 C24.6185376,18.7523029 24.9099809,19.5230489 24.6112483,20.6328919 C24.5951618,20.6936821 24.0937133,22.7545587 23.7996308,23.9650244 C23.5022807,25.1012922 22.4400646,25.1894184 22.1217265,25.1894184 C21.6823622,25.1894184 21.2461397,25.0628916 20.8938691,24.8331387 C20.2476416,24.4128147 19.7581324,23.4988799 19.6296912,23.2419212 L16.5102798,16.6643505 C17.0980678,15.2384509 20.3955626,8.11012422 27.3631823,8.0831787 C27.6229552,8.0831787 27.8312008,8.18002637 27.9823894,8.37085792 C28.1594673,8.59462289 28.2300974,8.91770879 28.1729146,9.23793091 Z M11.8705622,23.2290342 C11.7360885,23.4988799 11.2462023,24.4128147 10.6001005,24.8337896 C10.2478298,25.0628916 9.81198438,25.1894184 9.37224301,25.1894184 C9.05377927,25.1894184 7.99168887,25.1012922 7.69735497,23.977651 C7.45831865,22.9938141 6.90044156,20.6982381 6.88322391,20.6331523 C6.58449135,19.5229187 6.87580901,18.7515219 7.78092971,18.2182088 L11.7265371,16.0663422 L5.80542397,16.0663422 C5.36379745,16.0663422 4.9738239,15.8004017 4.87856126,15.4359212 C4.84651381,15.312128 3.42071619,9.63534479 3.32080353,9.23793091 C3.26362082,8.91770879 3.33450225,8.59462289 3.51195719,8.37085792 C3.66264307,8.18002637 3.87101437,8.0831787 4.13506028,8.0831787 C11.1193949,8.11012422 14.4176437,15.2858333 14.9846952,16.6626583 L11.8705622,23.2290342 Z M29.0488785,7.46525414 C28.6352777,6.94222468 28.0369329,6.65454545 27.3536309,6.65454545 C20.7299872,6.68018926 17.117422,12.2736627 15.7461679,15.0174195 C14.3721489,12.2740532 10.7531742,6.68018926 4.13041025,6.65454545 C3.45691097,6.65454545 2.85869178,6.94222468 2.44521676,7.46525414 C2.00522404,8.02056616 1.82827181,8.79508715 1.97154279,9.53628421 L1.98034013,9.57585637 C1.98034013,9.57585637 3.5161045,15.6897558 3.54651817,15.8075611 C3.80654243,16.8011609 4.73541596,17.4952358 5.80542397,17.4952358 L6.40414586,17.4952358 C5.47288448,18.3689476 5.17075866,19.5903476 5.5523119,21.0093482 C5.58322827,21.1307983 6.35965645,24.3265109 6.36279835,24.3391375 C6.7305272,25.7452511 7.88360725,26.6181818 9.37224301,26.6181818 C10.0684897,26.6181818 10.7654905,26.4139426 11.3344271,26.0434742 C12.2174287,25.4686365 12.8174074,24.444186 13.1024412,23.8718215 L15.7462935,18.2969627 L18.3974351,23.885099 C18.6765621,24.444186 19.2769178,25.4686365 20.1589141,26.0429535 C20.7284791,26.4139426 21.4254798,26.6181818 22.1217265,26.6181818 C23.6102366,26.6181818 24.7634423,25.7452511 25.1343131,24.3267712 C25.1343131,24.3267712 25.9083534,21.1417327 25.9400238,21.0168981 C26.3229595,19.5949036 26.0225932,18.3750656 25.0855507,17.4952358 L25.6901794,17.4952358 C26.7593076,17.4952358 27.6871757,16.8011609 27.9474514,15.8075611 C27.9776137,15.6915782 29.3559056,10.2014611 29.5133781,9.57585637 L29.5221754,9.53628421 C29.665572,8.79508715 29.4888712,8.02056616 29.0488785,7.46525414 L29.0488785,7.46525414 Z" id="Fill-8"></path>
                            </g>
                        </g>
                        <path d="M62.6674145,14.1409091 C63.5519309,14.1409091 64.3325001,14.297543 65.0091221,14.6147689 C65.6846412,14.9319949 66.2518015,15.3515701 66.7103274,15.8726463 C67.1696803,16.3951362 67.5151601,16.9900056 67.7497996,17.65782 C67.9844391,18.3253517 68.0994152,19.0022136 68.0994152,19.6855783 L68.0994152,20.7647686 L58.3848991,20.7647686 C58.3848991,21.0899111 58.4480395,21.5049626 58.5740445,22.0102058 C58.6989466,22.5146007 58.9283473,23.0068382 59.2627982,23.4857873 C59.5961462,23.965019 60.0425403,24.3755468 60.6017046,24.7185014 C61.1600419,25.0603251 61.882158,25.2319438 62.7672259,25.2319438 C63.5342847,25.2319438 64.2779072,25.0433612 64.9958875,24.6659132 C65.7141435,24.2904443 66.2633819,23.7770018 66.6491171,23.1261514 L67.7497996,24.0758502 C67.1652688,24.9842701 66.4442556,25.6339896 65.5842784,26.0281189 C64.7245769,26.4205517 63.778023,26.6181818 62.7418594,26.6181818 C61.8570673,26.6181818 61.0563704,26.4640925 60.3381143,26.1561967 C59.6215126,25.8483009 59.0025166,25.4148718 58.4863648,24.859585 C57.968283,24.3028845 57.5720704,23.6441175 57.2968998,22.8827186 C57.0220049,22.1207542 56.8830409,21.2773629 56.8830409,20.35311 C56.8830409,19.4630677 57.0253135,18.6417295 57.309583,17.8885298 C57.5935767,17.1358956 57.9939252,16.4805214 58.512007,15.9241037 C59.027883,15.3682513 59.6377803,14.9319949 60.3381143,14.6147689 C61.039827,14.297543 61.8162604,14.1409091 62.6674145,14.1409091 Z M77.8883917,14.1409091 C78.7742649,14.1409091 79.5545392,14.297543 80.2300417,14.6147689 C80.9052685,14.9319949 81.4737935,15.3515701 81.9325837,15.8726463 C82.3919254,16.3951362 82.737121,16.9900056 82.9717547,17.65782 C83.2066641,18.3253517 83.3216374,19.0022136 83.3216374,19.6855783 L83.3216374,20.7647686 L73.6079116,20.7647686 C73.6079116,21.0899111 73.6710504,21.5049626 73.7956737,22.0102058 C73.9208484,22.5146007 74.1502436,23.0068382 74.4838591,23.4857873 C74.8185775,23.965019 75.2641334,24.3755468 75.8227326,24.7185014 C76.3832618,25.0603251 77.1050845,25.2319438 77.9890277,25.2319438 C78.7560677,25.2319438 79.4996719,25.0433612 80.2173588,24.6659132 C80.93477,24.2904443 81.4856492,23.7770018 81.8691692,23.1261514 L82.9717547,24.0758502 C82.3864111,24.9842701 81.6651399,25.6339896 80.8062867,26.0281189 C79.9457792,26.4205517 78.9989729,26.6181818 77.9639376,26.6181818 C77.0799944,26.6181818 76.2779386,26.4640925 75.5602516,26.1561967 C74.8425647,25.8483009 74.2249624,25.4148718 73.7082719,24.859585 C73.1902029,24.3028845 72.794,23.6441175 72.5182847,22.8827186 C72.243948,22.1207542 72.1052632,21.2773629 72.1052632,20.35311 C72.1052632,19.4630677 72.2475323,18.6417295 72.531519,17.8885298 C72.8144029,17.1358956 73.2158444,16.4805214 73.7328106,15.9241037 C74.2497768,15.3682513 74.859659,14.9319949 75.5602516,14.6147689 C76.2616714,14.297543 77.0380857,14.1409091 77.8883917,14.1409091 Z M99.3450292,6.65454545 L99.3450292,26.306174 L97.8722367,26.306174 L97.8722367,24.2011228 L97.8228196,24.2011228 C97.5940966,24.6164654 97.3086654,24.97599 96.9646358,25.2794105 C96.6216863,25.5819723 96.2490326,25.834441 95.8493749,26.0339543 C95.4486371,26.2323226 95.0284565,26.3791666 94.5864027,26.4753452 C94.1443489,26.5698063 93.7117465,26.6181818 93.2877853,26.6181818 C92.4206902,26.6181818 91.6200247,26.4621779 90.8838985,26.1504563 C90.1475022,25.8387347 89.5191216,25.39992 88.995246,24.8377333 C88.4724506,24.2741155 88.0644217,23.6071629 87.7695392,22.8363032 C87.4754667,22.0648709 87.3274854,21.2201597 87.3274854,20.3013109 C87.3274854,19.3827484 87.4754667,18.5377509 87.7695392,17.7674637 C88.0644217,16.9963176 88.4724506,16.3290788 88.995246,15.765461 C89.5191216,15.2024156 90.1475022,14.7653184 90.8838985,14.452738 C91.6200247,14.1418752 92.4206902,13.9858712 93.2877853,13.9858712 C93.7117465,13.9858712 94.1443489,14.0331018 94.5864027,14.1284216 C95.0284565,14.2237415 95.4486371,14.3714443 95.8493749,14.570385 C96.2490326,14.7701846 96.6216863,15.0203633 96.9646358,15.3237838 C97.3086654,15.628063 97.5940966,15.9864427 97.8228196,16.401499 L97.8722367,16.401499 L97.8722367,6.65454545 L99.3450292,6.65454545 Z M109.359649,14.1409091 C110.233603,14.1409091 111.036769,14.2949984 111.769148,14.602046 C112.504249,14.91079 113.138614,15.3425227 113.674966,15.8986577 C114.208595,16.4553582 114.627875,17.1144079 114.921915,17.8760896 C115.218678,18.636923 115.368421,19.4715497 115.368421,20.3788386 C115.368421,21.2864103 115.218678,22.1207542 114.921915,22.8827186 C114.627875,23.6441175 114.208595,24.3028845 113.674966,24.859585 C113.138614,25.4148718 112.504249,25.8483009 111.769148,26.1561967 C111.036769,26.4640925 110.233603,26.6181818 109.359649,26.6181818 C108.485695,26.6181818 107.679807,26.4640925 106.936538,26.1561967 C106.195991,25.8483009 105.561626,25.4148718 105.033442,24.859585 C104.505258,24.3028845 104.094146,23.6441175 103.797383,22.8827186 C103.50062,22.1207542 103.350877,21.2864103 103.350877,20.3788386 C103.350877,19.4715497 103.50062,18.636923 103.797383,17.8760896 C104.094146,17.1144079 104.505258,16.4553582 105.033442,15.8986577 C105.561626,15.3425227 106.195991,14.91079 106.936538,14.602046 C107.679807,14.2949984 108.485695,14.1409091 109.359649,14.1409091 Z M44.0251949,6.65454545 C44.6918463,6.65454545 45.2384794,6.75788609 45.6666667,6.96542615 L45.3812959,8.31801483 C45.0644792,8.1442537 44.6352438,8.05751627 44.0964721,8.05751627 C42.8113863,8.05751627 42.1685813,9.1238428 42.1685813,11.254492 L42.1685813,14.6089119 L44.7384909,14.6089119 L44.7384909,16.012169 L42.1685813,16.012169 L42.1685813,26.6181818 L40.7406791,26.6181818 L40.7406791,16.012169 L38.4561404,16.012169 L38.4561404,14.6089119 L40.7406791,14.6089119 L40.7406791,10.6828265 C40.7406791,9.90333464 40.848381,9.2569547 41.0622126,8.74569049 C41.2757821,8.23585759 41.5430716,7.82335383 41.8591021,7.51161434 C42.1769669,7.20073364 42.5294221,6.97830795 42.91804,6.84948998 C43.3063959,6.71895444 43.6753602,6.65454545 44.0251949,6.65454545 Z M53.5666557,14.1409091 C53.7238701,14.1409091 53.8753468,14.1530846 54.0236677,14.1794648 C54.1708411,14.206135 54.3226046,14.2371535 54.4795322,14.2719406 L54.296211,15.8254757 C54.0885043,15.7556116 53.8882567,15.7185053 53.6974765,15.7185053 C53.0198479,15.7185053 52.4331626,15.8283746 51.9382815,16.048983 C51.444261,16.2681419 51.0363067,16.5719495 50.7144188,16.9575068 C50.3933915,17.3430641 50.1552748,17.7950069 49.9986341,18.3121755 C49.8422804,18.829634 49.7639601,19.3882573 49.7639601,19.9848565 L49.7639601,26.6181818 L48.2004224,26.6181818 L48.2004224,17.8790758 C48.2004224,17.6503504 48.1906682,17.3740826 48.1740288,17.048823 C48.1559548,16.7238533 48.1433318,16.3956947 48.1355858,16.0608686 C48.1261185,15.7292313 48.1134955,15.4170169 48.0962822,15.1268342 C48.0787821,14.8366516 48.0701754,14.6137241 48.0701754,14.4566023 L49.6337131,14.4566023 C49.6506394,14.9123136 49.6635494,15.3512112 49.672156,15.7718456 C49.6816233,16.194799 49.7019923,16.4655588 49.7378533,16.5873138 C50.1360533,15.8692495 50.6492953,15.2807673 51.2738497,14.8241862 C51.898691,14.3690547 52.6632465,14.1409091 53.5666557,14.1409091 Z M132.547623,14.1409091 C133.458147,14.1409091 134.198817,14.2896241 134.775204,14.5882136 C135.346021,14.8859334 135.797107,15.2775785 136.125675,15.7596701 C136.454243,16.2414718 136.68257,16.7986456 136.807871,17.4311915 C136.935957,18.0634475 137,18.7122275 137,19.3786908 L137,26.6181818 L135.482461,26.6181818 L135.482461,19.4584113 C135.482461,18.9664634 135.440694,18.4881404 135.354375,18.0237322 C135.270841,17.5584544 135.123263,17.1415887 134.911643,16.7722653 C134.702808,16.4032319 134.407653,16.1115998 134.028964,15.8898319 C133.650276,15.6715427 133.154639,15.5616733 132.547623,15.5616733 C131.840367,15.5616733 131.261196,15.6979229 130.804542,15.9692625 C130.350672,16.2414718 129.98869,16.5873138 129.729734,17.0093976 C129.467993,17.4311915 129.281433,17.8880624 129.172839,18.3774014 C129.064244,18.8699291 129.008555,19.3352069 129.008555,19.7729449 L129.008555,26.6181818 L127.4938,26.6181818 L127.4938,19.3001299 C127.4938,18.1759259 127.293318,17.2732 126.897922,16.5873138 C126.502527,15.903167 125.889942,15.5616733 125.062953,15.5616733 C124.508842,15.5616733 123.979792,15.6628459 123.48694,15.8646112 C122.985734,16.0655069 122.556925,16.3727932 122.194943,16.7864701 C121.830177,17.1986975 121.543376,17.7158662 121.33454,18.3385557 C121.12292,18.962115 121.019894,19.6935143 121.019894,20.5368123 L121.019894,26.6181818 L119.502355,26.6181818 L119.502355,17.8790758 C119.502355,17.6503504 119.494001,17.3740826 119.47451,17.048823 C119.457803,16.7238533 119.446665,16.3956947 119.438312,16.0608686 C119.429959,15.7292313 119.416036,15.4170169 119.402114,15.1268342 C119.382622,14.8366516 119.374269,14.6137241 119.374269,14.4566023 L120.891808,14.4566023 C120.908515,14.9123136 120.922437,15.3512112 120.930791,15.7718456 C120.939144,16.194799 120.96142,16.4655588 120.992049,16.5873138 L121.070015,16.5873138 C121.373523,15.92201 121.877513,15.3474426 122.587554,14.8639015 C123.294811,14.3818099 124.119016,14.1409091 125.062953,14.1409091 C125.837037,14.1409091 126.547078,14.3467329 127.187508,14.7592503 C127.827937,15.1714777 128.292945,15.8425794 128.579746,16.7722653 C128.950081,15.8602628 129.501407,15.1935096 130.236509,14.7717157 C130.968826,14.3505015 131.740125,14.1409091 132.547623,14.1409091 Z M109.359649,15.5265816 C108.668109,15.5265816 108.041912,15.6546595 107.481057,15.9113807 C106.920202,16.1683846 106.441025,16.5152975 106.046248,16.950423 C105.651472,17.3875276 105.349264,17.9023837 105.145069,18.4915985 C104.938151,19.0822269 104.834693,19.7113069 104.834693,20.3788386 C104.834693,21.046653 104.938151,21.6757331 105.145069,22.2655133 C105.349264,22.8575554 105.651472,23.3701496 106.046248,23.806406 C106.441025,24.2423797 106.920202,24.5901408 107.481057,24.8457311 C108.041912,25.1030178 108.668109,25.2319438 109.359649,25.2319438 C110.051189,25.2319438 110.677386,25.1030178 111.238241,24.8457311 C111.799096,24.5901408 112.275551,24.2423797 112.67305,23.806406 C113.067826,23.3701496 113.367312,22.8575554 113.576952,22.2655133 C113.781147,21.6757331 113.884606,21.046653 113.884606,20.3788386 C113.884606,19.7113069 113.781147,19.0822269 113.576952,18.4915985 C113.367312,17.9023837 113.067826,17.3875276 112.67305,16.950423 C112.275551,16.5152975 111.799096,16.1683846 111.238241,15.9113807 C110.677386,15.6546595 110.051189,15.5265816 109.359649,15.5265816 Z M93.2877853,15.3887616 C92.6005362,15.3887616 91.9783664,15.5184309 91.4237064,15.778342 C90.866886,16.0385394 90.3940478,16.3897629 90.0014112,16.8302951 C89.6093146,17.272831 89.3109215,17.7940845 89.1065021,18.3906206 C88.9012724,18.988588 88.8000078,19.6254847 88.8000078,20.3013109 C88.8000078,20.9774233 88.9012724,21.6143201 89.1065021,22.2114287 C89.3109215,22.8108273 89.6093146,23.3297908 90.0014112,23.771468 C90.3940478,24.2128589 90.866886,24.5649412 91.4237064,24.8237073 C91.9783664,25.0841909 92.6005362,25.214719 93.2877853,25.214719 C93.9574819,25.214719 94.5785715,25.0841909 95.149974,24.8237073 C95.7221865,24.5649412 96.2201384,24.2128589 96.6465299,23.771468 C97.0715712,23.3297908 97.4064195,22.8108273 97.652155,22.2114287 C97.8973504,21.6143201 98.019408,20.9774233 98.019408,20.3013109 C98.019408,19.6254847 97.8973504,18.988588 97.652155,18.3906206 C97.4064195,17.7940845 97.0715712,17.272831 96.6465299,16.8302951 C96.2201384,16.3897629 95.7221865,16.0385394 95.149974,15.778342 C94.5785715,15.5184309 93.9574819,15.3887616 93.2877853,15.3887616 Z M62.5915909,15.5265816 C61.7740749,15.5265816 61.0933171,15.698483 60.5512475,16.0397413 C60.0091779,16.3829787 59.5782243,16.7762597 59.2627982,17.2207154 C58.9451664,17.6668674 58.71935,18.0983174 58.586452,18.5167617 C58.4513481,18.9369023 58.3848991,19.2235932 58.3848991,19.3773997 L66.5978327,19.3773997 C66.5978327,18.8472761 66.4936098,18.3513631 66.2848882,17.8885298 C66.076718,17.426262 65.7921728,17.0194098 65.4342856,16.6691041 C65.074744,16.3176674 64.6490291,16.0397413 64.1574166,15.8347601 C63.6635984,15.6292135 63.1427593,15.5265816 62.5915909,15.5265816 Z M77.8136728,15.5265816 C76.9961769,15.5265816 76.3151601,15.698483 75.7733796,16.0397413 C75.2310476,16.3829787 74.8023103,16.7762597 74.4838591,17.2207154 C74.1667865,17.6668674 73.9409756,18.0983174 73.8078052,18.5167617 C73.6735318,18.9369023 73.6079116,19.2235932 73.6079116,19.3773997 L81.8198162,19.3773997 C81.8198162,18.8472761 81.7155958,18.3513631 81.5077064,17.8885298 C81.2981628,17.426262 81.0141761,17.0194098 80.6562976,16.6691041 C80.2964891,16.3176674 79.870509,16.0397413 79.3783572,15.8347601 C78.8867568,15.6292135 78.3648277,15.5265816 77.8136728,15.5265816 Z" id="Combined-Shape"></path>
                    </g>
                    <g id="logo/square/light" transform="translate(50.000000, 140.369318)">
                        <g id="logo/square/default" stroke-width="1" fill-rule="evenodd">
                            <rect id="background" x="0" y="0" width="50" height="51.9886364"></rect>
                        </g>
                        <path d="M43.9559161,14.434267 C43.8002266,15.0548194 41.582533,23.8981487 41.5266494,24.1151692 C41.3764502,24.6881276 40.7697708,25.1036597 40.0823054,25.1036597 L30.8425036,25.1036597 L36.9665537,28.4488663 C38.4103095,29.3004733 38.8650249,30.5047639 38.3989367,32.2388936 C38.3738382,32.3338782 37.5914688,35.553998 37.1326356,37.4453506 C36.6687043,39.2207691 35.0114146,39.3584663 34.5147375,39.3584663 C33.829233,39.3584663 33.1486304,39.1607681 32.5990111,38.8017793 C31.5907546,38.1450229 30.8270131,36.7169999 30.6266167,36.3155018 L25.7596518,26.0380477 C26.6767299,23.8100795 31.8215438,12.6720691 42.6925562,12.6299667 C43.0978589,12.6299667 43.4227677,12.7812912 43.658655,13.0794655 C43.9349353,13.4290983 44.0451337,13.93392 43.9559161,14.434267 Z M18.5206764,36.2953659 C18.310868,36.7169999 17.5465383,38.1450229 16.5384779,38.8027963 C15.9888585,39.1607681 15.3088442,39.3584663 14.6227514,39.3584663 C14.1258782,39.3584663 12.4687846,39.2207691 12.0095593,37.4650797 C11.6366103,35.9278346 10.7661999,32.340997 10.7393366,32.2393004 C10.2732484,30.5045605 10.7277677,29.2992529 12.1399542,28.4659513 L18.2959658,25.1036597 L9.05773265,25.1036597 C8.36869858,25.1036597 7.76025444,24.6881276 7.61162387,24.1186269 C7.56162282,23.9252 5.33706632,15.0552262 5.1811807,14.434267 C5.09196314,13.93392 5.2025537,13.4290983 5.47942225,13.0794655 C5.71452523,12.7812912 6.03963009,12.6299667 6.45159952,12.6299667 C17.348691,12.6720691 22.4946813,23.8841146 23.3794058,26.0354036 L18.5206764,36.2953659 Z M45.3226115,11.6644596 C44.6773038,10.8472261 43.7437548,10.3977273 42.677654,10.3977273 C32.3433194,10.4377957 26.7069266,19.1775979 24.5674699,23.464718 C22.4236995,19.1782081 16.7773064,10.4377957 6.44434446,10.3977273 C5.3935381,10.3977273 4.46018517,10.8472261 3.81507359,11.6644596 C3.1285886,12.5321346 2.85250437,13.7423237 3.07603847,14.9004441 L3.08976425,14.9622756 C3.08976425,14.9622756 5.48589298,24.5152434 5.53334495,24.6993142 C5.93903974,26.2518139 7.38828585,27.336306 9.05773265,27.336306 L9.9918699,27.336306 C8.53889823,28.7014806 8.06751579,30.6099182 8.6628224,32.8271065 C8.71105871,33.0168723 9.92245668,38.0101733 9.92735875,38.0299024 C10.5010963,40.2269549 12.3001536,41.5909091 14.6227514,41.5909091 C15.7090487,41.5909091 16.7965225,41.2717853 17.6841882,40.6929285 C19.0618642,39.7947445 19.9979623,38.1940407 20.4426775,37.2997211 L24.567666,28.5890042 L28.7040274,37.3204672 C29.1395267,38.1940407 30.076213,39.7947445 31.4523203,40.6921149 C32.3409664,41.2717853 33.4284402,41.5909091 34.5147375,41.5909091 C36.8371392,41.5909091 38.6363927,40.2269549 39.2150323,38.0105801 C39.2150323,38.0105801 40.4227047,33.0339573 40.4721175,32.8389033 C41.069581,30.6170369 40.6009437,28.71104 39.1389523,27.336306 L40.0823054,27.336306 C41.7503796,27.336306 43.1980571,26.2518139 43.604144,24.6993142 C43.6512038,24.5180909 45.8016411,15.9397829 46.0473325,14.9622756 L46.0610583,14.9004441 C46.2847885,13.7423237 46.0090964,12.5321346 45.3226115,11.6644596 L45.3226115,11.6644596 Z" id="Fill-8" fill-opacity="0.9" fill="#F3F5F7" fill-rule="nonzero"></path>
                    </g>
                    <g id="logo/square/light" transform="translate(416.000000, 188.198864)">
                        <g id="logo/square/default" stroke-width="1" fill-rule="evenodd">
                            <rect id="background" x="0" y="0" width="38" height="39.5113636"></rect>
                        </g>
                        <path d="M33.4064962,10.970043 C33.2881722,11.4416628 31.602725,18.162593 31.5602536,18.3275286 C31.4461021,18.762977 30.9850258,19.0787814 30.4625521,19.0787814 L23.4403027,19.0787814 L28.0945808,21.6211384 C29.1918352,22.2683597 29.5374189,23.1836206 29.1831919,24.5015592 C29.164117,24.5737474 28.5695163,27.0210385 28.2208031,28.4584665 C27.8682153,29.8077845 26.6086751,29.9124344 26.2312005,29.9124344 C25.7102171,29.9124344 25.1929591,29.7621838 24.7752484,29.4893523 C24.0089735,28.9902174 23.4285299,27.9049199 23.2762287,27.5997814 L19.5773354,19.7889163 C20.2743147,18.0956604 24.1843733,9.63077251 32.4463427,9.59877471 C32.7543727,9.59877471 33.0013034,9.71378131 33.1805778,9.94039378 C33.3905508,10.2061147 33.4743016,10.5897792 33.4064962,10.970043 Z M14.075714,27.5844781 C13.9162597,27.9049199 13.3353691,28.9902174 12.5692432,29.4901252 C12.1515325,29.7621838 11.6347216,29.9124344 11.1132911,29.9124344 C10.7356675,29.9124344 9.47627632,29.8077845 9.12726508,28.4734606 C8.84382383,27.3051543 8.18231191,24.5791577 8.16189579,24.5018683 C7.80766875,23.183466 8.15310345,22.2674322 9.2263652,21.634123 L13.904934,19.0787814 L6.88387681,19.0787814 C6.36021092,19.0787814 5.89779337,18.762977 5.78483414,18.3301564 C5.74683334,18.183152 4.05617041,11.4419719 3.93769733,10.970043 C3.86989199,10.5897792 3.95394081,10.2061147 4.16436091,9.94039378 C4.34303917,9.71378131 4.59011887,9.59877471 4.90321563,9.59877471 C13.1850051,9.63077251 17.0959578,18.1519271 17.7683484,19.7869067 L14.075714,27.5844781 Z M34.4451847,8.86498929 C33.9547509,8.2438918 33.2452536,7.90227273 32.435017,7.90227273 C24.5809228,7.93272474 20.2972642,14.5749744 18.6712772,17.8331857 C17.0420116,14.5754381 12.7507529,7.93272474 4.89770179,7.90227273 C4.09908895,7.90227273 3.38974073,8.2438918 2.89945593,8.86498929 C2.37772733,9.52442232 2.16790332,10.444166 2.33778924,11.3243375 L2.34822083,11.3713294 C2.34822083,11.3713294 4.16927866,18.631585 4.20534216,18.7714788 C4.5136702,19.9513785 5.61509724,20.7755925 6.88387681,20.7755925 L7.59382113,20.7755925 C6.48956266,21.8131252 6.131312,23.2635378 6.58374502,24.948601 C6.62040462,25.0928229 7.54106708,28.8877317 7.54479265,28.9027258 C7.98083317,30.5724857 9.34811677,31.6090909 11.1132911,31.6090909 C11.938877,31.6090909 12.7653571,31.3665568 13.439983,30.9266256 C14.4870168,30.2440058 15.1984513,29.0274709 15.5364349,28.3477881 L18.6714262,21.7276432 L21.8150608,28.3635551 C22.1460403,29.0274709 22.8579219,30.2440058 23.9037635,30.9260073 C24.5791345,31.3665568 25.4056146,31.6090909 26.2312005,31.6090909 C27.9962258,31.6090909 29.3636584,30.5724857 29.8034245,28.8880409 C29.8034245,28.8880409 30.7212556,25.1058076 30.7588093,24.9575665 C31.2128816,23.2689481 30.8567172,21.8203904 29.7456037,20.7755925 L30.4625521,20.7755925 C31.7302885,20.7755925 32.8305234,19.9513785 33.1391494,18.7714788 C33.1749149,18.6337491 34.8092472,12.114235 34.9959727,11.3713294 L35.0064043,11.3243375 C35.1764393,10.444166 34.9669133,9.52442232 34.4451847,8.86498929 L34.4451847,8.86498929 Z" id="Fill-8" fill-opacity="0.9" fill="#F3F5F7" fill-rule="nonzero"></path>
                    </g>
                </g>
                <g id="Group" transform="translate(392.000000, 124.772727)"></g>
                <g id="Group-2" transform="translate(0.000000, 51.988636)"></g>
            </g>
        </g>
    </g>
</svg>